PathFileType	4	(X/Y/Z)	C:\Users\Basilio\Documents\Thesis Gigler\squatting_fais\c3dfiles\075\SLS_front_pre1\markers_experimental.trc
DataRate	CameraRate	NumFrames	NumMarkers	Units	OrigDataRate	OrigDataStartFrame	OrigNumFrames
200.000000	200.000000	4	61	mm	200.000000	156	1249
Frame#	Time	FHD			LBHD			C7			T10			CLAV			LSHO			LUUPA			LMUPA			LDUPA			LLEP			LMEP			LUL			LRFIN			RSHO			RUPA1			RMUPA			RDUPA			RLEP			RMEP			RRAD			RUL			RUFIN			LASI			RASI			USACR			LSACR			RSACR			LTHI1			LTHI2			LTHI3			LTHI4			LLFC			LMFC			LTIB1			LTIB2			LTIB3			LTIB4			LLMAL			LMMAL			LHEE			LMT1			LMT2			LMT5			RTHI			RTHI2			RTHI3			RTHI4			RLFC			RMFC			RTIB1			RTIB2			RTIB3			RTIB4			RLMAL			RMMAL			RHEE			RMT1			RMT2			RMT5			LRAD			RBHD			
		X1	Y1	Z1	X2	Y2	Z2	X3	Y3	Z3	X4	Y4	Z4	X5	Y5	Z5	X6	Y6	Z6	X7	Y7	Z7	X8	Y8	Z8	X9	Y9	Z9	X10	Y10	Z10	X11	Y11	Z11	X12	Y12	Z12	X13	Y13	Z13	X14	Y14	Z14	X15	Y15	Z15	X16	Y16	Z16	X17	Y17	Z17	X18	Y18	Z18	X19	Y19	Z19	X20	Y20	Z20	X21	Y21	Z21	X22	Y22	Z22	X23	Y23	Z23	X24	Y24	Z24	X25	Y25	Z25	X26	Y26	Z26	X27	Y27	Z27	X28	Y28	Z28	X29	Y29	Z29	X30	Y30	Z30	X31	Y31	Z31	X32	Y32	Z32	X33	Y33	Z33	X34	Y34	Z34	X35	Y35	Z35	X36	Y36	Z36	X37	Y37	Z37	X38	Y38	Z38	X39	Y39	Z39	X40	Y40	Z40	X41	Y41	Z41	X42	Y42	Z42	X43	Y43	Z43	X44	Y44	Z44	X45	Y45	Z45	X46	Y46	Z46	X47	Y47	Z47	X48	Y48	Z48	X49	Y49	Z49	X50	Y50	Z50	X51	Y51	Z51	X52	Y52	Z52	X53	Y53	Z53	X54	Y54	Z54	X55	Y55	Z55	X56	Y56	Z56	X57	Y57	Z57	X58	Y58	Z58	X59	Y59	Z59	X60	Y60	Z60	X61	Y61	Z61	

157	0.78	-292.0881652832032	1712.362548828125	-761.1138916015626	-432.7545776367189	1587.913940429688	-829.691345214844	-467.9673156738282	1468.138671875	-770.466735839844	-463.5073547363282	1144.21826171875	-777.291931152344	-323.4038696289063	1413.505615234375	-765.5509643554689	-355.7209472656251	1441.935180664063	-920.0462646484377	-266.5863647460938	1273.529418945313	-1030.072021484375	-225.1413879394532	1279.101440429688	-1004.690063476563	-213.3213958740235	1230.777221679688	-1040.009887695313	-143.5587768554688	1177.581665039063	-1033.066772460938	-200.9388122558594	1123.42822265625	-986.3996582031252	37.07664489746094	1114.629028320313	-865.9041748046877	45.63591384887696	1154.704833984375	-767.4454345703126	-365.0994873046876	1436.462036132813	-609.2435302734376	-287.3348388671876	1265.522583007813	-492.4185791015626	-242.3942108154297	1266.343505859375	-512.3698120117189	-238.5622100830079	1216.836059570313	-477.109100341797	-181.678939819336	1172.331298828125	-474.9558410644532	-212.6910705566407	1108.098876953125	-517.5399780273439	-11.02003288269043	1162.447021484375	-693.7788085937501	21.48347663879395	1132.921264648438	-629.9786376953126	67.29833984375001	1169.367065429688	-729.6916503906251	-287.8828735351563	996.014587402344	-912.1677246093752	-285.2529602050782	985.348083496094	-658.0558471679689	-448.8992614746095	1041.938110351563	-786.819274902344	-453.0690307617189	1011.351867675781	-815.728942871094	-451.5046691894532	1009.65283203125	-758.0772094726564	-245.5432281494141	775.8728637695315	-995.5639648437502	-182.5363159179688	720.0969238281251	-995.3353271484377	-146.3352966308594	741.9794311523439	-970.0588378906252	-184.2898254394532	659.6571044921876	-993.5494384765627	-144.4551849365235	556.3487548828126	-988.796325683594	-107.8920440673828	549.8055419921876	-863.4089355468752	-47.02075576782227	463.4549560546876	-960.7215576171877	-87.02236175537111	408.3130187988282	-1014.321838378906	-47.09753036499024	416.1067199707032	-993.859802246094	-20.22826957702637	338.5315246582032	-969.5764160156252	-36.48537063598634	177.8453979492188	-999.258972167969	-14.58780288696289	199.2575988769532	-916.2698974609377	-80.37839508056642	132.597900390625	-957.737731933594	124.567611694336	163.3873138427735	-919.179138183594	130.1879425048828	165.0691223144532	-968.2141113281252	99.53046417236331	134.8963165283203	-1019.225402832031	-340.0674133300782	774.3332519531252	-612.0674438476564	-298.5344848632813	724.1906127929689	-615.7979125976564	-266.9488830566407	732.9382324218751	-622.5558471679689	-319.6110229492188	642.5972900390626	-633.1612548828126	-324.8667907714844	490.0486145019532	-675.1109008789064	-275.0180358886719	494.2058410644532	-793.659606933594	-280.1708068847657	346.3818054199219	-752.1863403320314	-344.1179504394532	268.5981140136719	-711.2257690429689	-304.2439575195313	263.5724792480469	-738.5907592773439	-316.0465087890626	225.5007781982422	-782.8223266601565	-399.1452941894532	110.7752380371094	-770.072448730469	-359.4800415039063	142.1280517578125	-843.311706542969	-448.0021972656251	95.61443328857423	-834.0692138671877	-242.6667175292969	59.73900985717775	-821.1632080078127	-249.5257568359376	53.79555130004884	-780.2073364257815	-292.1891784667969	31.27837371826173	-733.4254760742189	nan	nan	nan	nan	nan	nan	
158	0.785	-292.3932800292969	1712.322631835938	-760.8118286132814	-433.2689514160157	1588.119018554688	-829.470886230469	-468.2341613769532	1468.115966796875	-770.1812744140627	-463.7108154296876	1144.200927734375	-777.2824707031252	-323.1597595214844	1413.44091796875	-764.8361816406251	-356.0261840820313	1442.135375976563	-919.627136230469	-265.9404296875001	1274.6669921875	-1029.86962890625	-224.4835510253907	1280.467529296875	-1004.347534179688	-212.2737274169922	1232.227294921875	-1039.60546875	-142.1114807128907	1179.66064453125	-1032.699951171875	-199.1029510498047	1125.11181640625	-986.2795410156252	39.16307067871094	1117.287841796875	-865.7788696289065	47.13127136230469	1157.20458984375	-767.3510131835939	-365.6140136718751	1436.519409179688	-609.0617675781251	-286.8514404296876	1265.986450195313	-492.312225341797	-241.9771270751954	1267.01416015625	-512.3006591796876	-237.8158569335938	1217.571899414063	-477.2226562500001	-180.650619506836	1173.338134765625	-475.0290527343751	-211.0987091064454	1109.124145507813	-517.7000732421876	-9.681981086730959	1164.6943359375	-693.8464965820314	22.77039909362793	1135.297119140625	-629.9734497070314	68.67540740966798	1172.050659179688	-729.7678833007814	-288.0794067382813	996.1817016601565	-912.056823730469	-285.5453491210938	985.4155883789065	-658.0735473632814	-449.039276123047	1041.926879882813	-786.8459472656252	-453.2049560546876	1011.3818359375	-815.873229980469	-451.5252075195314	1009.525512695313	-758.4580078125001	-245.2101745605469	776.446472167969	-995.6706542968752	-182.1970367431641	720.5751953125001	-995.2841796875002	-145.8448486328125	742.7131958007814	-970.0032958984377	-183.5835571289063	660.3619995117189	-993.6551513671877	-143.4111938476563	557.0967407226564	-988.8055419921877	-107.1127700805664	550.5718994140626	-863.4184570312502	-45.78880691528321	464.4607543945314	-960.8724365234377	-85.63276672363283	409.0972290039064	-1014.250366210938	-45.62205886840821	417.1267700195314	-993.763366699219	-18.64763832092286	339.6209716796876	-969.6507568359377	-34.4364356994629	178.8902740478516	-999.581970214844	-12.72912502288819	200.2916717529297	-916.3457031250002	-78.41670227050783	133.5182037353516	-958.048278808594	126.2449340820313	164.8060913085938	-919.053405761719	132.0589904785157	166.60693359375	-968.1983642578127	101.7611618041992	136.3561248779297	-1019.050659179688	-340.3526306152344	774.3237915039065	-612.0968017578126	-298.7922973632813	724.2346191406251	-615.8245849609376	-267.1918029785157	732.9269409179689	-622.4909667968751	-319.7803955078126	642.5715332031251	-633.1358032226564	-324.9171142578126	490.0478820800782	-675.0816650390626	-274.9222717285157	494.1183471679689	-793.528991699219	-280.0964355468751	346.4231262207032	-752.1056518554689	-344.2014465332032	268.5090637207032	-711.2233276367189	-304.7832641601563	263.8468322753907	-738.7907714843751	-316.0249633789063	225.5045471191407	-782.7696533203127	-399.1617736816407	110.7628021240235	-770.0148925781252	-359.4563293457032	142.1501617431641	-843.3045043945315	-447.9683837890626	95.61349487304689	-834.064392089844	-242.6455078125001	59.73109054565431	-821.182800292969	-249.536117553711	53.81932449340822	-780.1641235351565	-292.1938781738282	31.23814964294434	-733.4327392578126	nan	nan	nan	nan	nan	nan	
159	0.79	-292.6479492187501	1712.20654296875	-760.4834594726564	-433.5744018554689	1588.192016601563	-829.210632324219	-468.6109313964845	1468.080444335938	-769.9121093750002	-463.9503173828126	1144.150146484375	-777.268981933594	-324.0020141601563	1413.635375976563	-764.9827880859376	-356.3894042968751	1442.356689453125	-919.237487792969	-265.6422729492188	1275.919189453125	-1029.56298828125	-223.9909057617188	1281.901977539063	-1004.073303222656	-211.910385131836	1233.907348632813	-1039.5478515625	-140.7237854003907	1181.687255859375	-1032.556884765625	-197.3425750732422	1126.732299804688	-986.149108886719	41.33868789672852	1120.216918945313	-865.7980957031252	48.91331481933595	1159.816162109375	-767.4558105468751	-366.0100097656251	1436.432006835938	-608.8822631835939	-286.4278259277344	1266.381225585938	-492.3877868652345	-241.5512847900391	1267.790405273438	-512.2497558593751	-236.9681854248047	1218.314453125	-477.2104797363282	-179.3713836669922	1174.594970703125	-475.1145629882814	-209.6365203857422	1110.156372070313	-517.9331054687501	-8.34885883331299	1166.830932617188	-693.7792968750001	24.38840103149415	1137.79443359375	-629.8805541992189	69.99090576171876	1174.961669921875	-729.5953369140626	-288.1019287109376	996.3665771484377	-912.0711669921877	-285.8111267089844	985.4837036132815	-658.0630493164064	-449.2472534179689	1041.935424804688	-786.888122558594	-453.3336181640626	1011.43994140625	-815.936950683594	-451.7778625488282	1009.5078125	-758.4729003906251	-244.8150482177735	777.1111450195315	-995.7537231445315	-182.3762817382813	721.5496826171876	-995.8257446289065	-146.1457214355469	743.5247192382814	-970.328308105469	-182.3403015136719	660.8821411132814	-993.553161621094	-142.3468475341797	557.8302612304689	-988.8740234375002	-106.3138046264649	551.2279052734376	-863.5916748046877	-44.95589828491212	465.4983520507814	-960.981384277344	-84.20751953125001	410.183319091797	-1014.463806152344	-44.29831695556641	418.1557922363282	-993.7918090820315	-16.96183776855469	340.5497436523438	-969.533386230469	-32.40423202514649	179.9581756591797	-999.7460937500002	-10.81553936004639	201.4177246093751	-916.650085449219	-76.39147186279298	134.2414093017578	-958.4902954101565	128.2354125976563	166.097396850586	-919.236999511719	134.1029510498047	168.0890655517578	-968.2178955078127	103.7297439575196	137.8450927734375	-1019.278442382813	-340.6072082519532	774.310974121094	-612.1383666992189	-298.9602966308594	724.2611083984376	-615.7973632812501	-267.3600463867188	732.9778442382814	-622.4124145507814	-319.9664611816407	642.5516357421876	-633.1181640625001	-324.9197082519532	490.0191345214845	-675.0396118164064	-274.8952331542969	494.1235961914064	-793.471862792969	-280.0835266113282	346.4125061035157	-752.0278930664064	-344.1768493652344	268.6015625000001	-711.1102294921876	-304.2379455566407	263.5146789550782	-738.4339599609376	-315.5234680175782	225.4705200195313	-782.3694458007815	-399.188934326172	110.77587890625	-769.9881591796877	-359.4269104003907	142.2109985351563	-843.2527465820315	-448.0246887207032	95.65819549560548	-834.0559692382815	-242.6914978027344	59.71583938598634	-821.1729125976565	-249.5342864990235	53.79146957397462	-780.221374511719	-292.1911926269532	31.24037551879884	-733.4412231445314	nan	nan	nan	nan	nan	nan	
160	0.795	-292.9762573242188	1712.226806640625	-760.1322631835939	-434.1391601562501	1588.157958984375	-828.7697753906252	-468.8246459960939	1468.064575195313	-769.609069824219	-464.1704101562501	1144.159057617188	-777.283386230469	-324.3085937500001	1413.6572265625	-764.6544189453126	-356.6959228515626	1442.579956054688	-918.834899902344	-264.8330993652344	1277.245727539063	-1029.252563476563	-222.9776916503907	1283.309448242188	-1003.594299316406	-210.3298339843751	1235.482788085938	-1039.01904296875	-139.1444244384766	1183.918212890625	-1032.32080078125	-195.5890045166016	1128.320434570313	-985.988708496094	43.05235671997071	1123.144165039063	-865.808288574219	50.16986083984376	1162.533081054688	-767.3078002929689	-366.3622131347657	1436.39453125	-608.6871337890626	-285.9867553710938	1266.822021484375	-492.3329467773439	-241.014877319336	1268.7060546875	-512.2479858398439	-236.0947418212891	1219.160522460938	-477.1705017089845	-178.2969818115235	1175.732788085938	-475.2226562500001	-207.9857025146485	1111.173461914063	-518.1128540039064	-6.988221168518068	1169.2314453125	-693.8918457031251	25.86155891418458	1140.439208984375	-629.9931030273439	71.28887939453126	1177.781372070313	-729.4724731445314	-288.1952819824219	996.6358032226565	-911.9981079101565	-286.0649719238282	985.482116699219	-658.0936889648439	-449.4199829101564	1041.977172851563	-786.8836059570315	-453.488494873047	1011.533203125	-815.988708496094	-451.9075927734376	1009.561157226563	-758.5450439453126	-245.3821411132813	777.8574218750002	-996.0692138671877	-181.1674499511719	721.8619384765626	-995.4228515625002	-145.1889953613282	744.1370239257814	-970.0847167968752	-181.6299285888672	661.5386962890626	-993.7213134765627	-141.5559234619141	558.5224609375001	-989.0389404296877	-105.6041488647461	552.0249633789064	-863.5839843750002	-43.86454391479493	466.3686523437501	-961.0330200195315	-82.76080322265626	410.8031005859376	-1014.612609863281	-42.94662475585938	419.1409301757814	-994.054626464844	-15.80380916595459	341.6179199218751	-969.8433227539065	-30.60722732543946	181.0591583251953	-1000.014526367188	-9.18746852874756	202.3273162841797	-916.7935791015627	-74.39755249023439	135.083740234375	-958.9101562500002	129.8386840820313	167.5733947753907	-919.1643676757815	135.8972930908203	169.5226135253907	-968.3193969726565	105.8777160644532	139.2518310546875	-1019.383972167969	-340.8622436523438	774.270935058594	-612.1922607421876	-299.1469116210938	724.2864379882814	-615.7285766601564	-267.5438232421876	733.0363769531251	-622.3109130859376	-320.1295471191407	642.5557250976564	-633.0684814453126	-325.0061950683594	489.9859313964845	-674.9838867187501	-274.8618164062501	494.1180419921876	-793.333190917969	-280.1403808593751	346.3926086425782	-751.9351806640626	-344.2328186035157	268.5874633789063	-711.1288452148439	-304.3771362304688	263.6812744140626	-738.3829956054689	-315.4898376464844	225.4579467773438	-782.244323730469	-399.1500244140626	110.7681884765625	-769.9661254882815	-358.8194274902344	141.920394897461	-843.0850830078127	-447.9841918945314	95.61973571777345	-834.0692138671877	-242.690414428711	59.7003746032715	-821.1754150390627	-249.5402221679688	53.8114700317383	-780.1619873046877	-292.2005920410157	31.22005844116212	-733.4597167968751	nan	nan	nan	nan	nan	nan	
